<?xml version="1.0" encoding="utf-8"?>
<!-- Generator: Adobe Illustrator 16.0.0, SVG Export Plug-In . SVG Version: 6.00 Build 0)  -->
<!DOCTYPE svg PUBLIC "-//W3C//DTD SVG 1.1//EN" "http://www.w3.org/Graphics/SVG/1.1/DTD/svg11.dtd">
<svg version="1.1" id="Layer_1" xmlns="http://www.w3.org/2000/svg" xmlns:xlink="http://www.w3.org/1999/xlink" x="0px" y="0px"
	 width="120.099px" height="118.604px" viewBox="0 0 120.099 118.604" enable-background="new 0 0 120.099 118.604"
	 xml:space="preserve">
<g>
	
		<rect x="17.695" y="22.197" transform="matrix(-0.1842 -0.9829 0.9829 -0.1842 10.2937 126.1474)" fill="#FFFFFF" width="79.607" height="73.21"/>
	<g>
		<path fill="#E51842" d="M26.297,108.9L10.455,24.367L88.7,9.704l15.842,84.532L26.297,108.9z M14.188,26.922l14.663,78.245
			l71.957-13.485L86.146,13.438L14.188,26.922z"/>
		<g>
			<path fill="#E51842" d="M109.644,108.9H26.199v-90.43h83.444V108.9z"/>
			<g>
				<g>
					<path fill="#FFFFFF" d="M35.441,30.476v8.998h-1.757V27.05h2.449l2.005,7.437V27.05h1.74v12.424h-2.006L35.441,30.476z"/>
					<path fill="#FFFFFF" d="M43.229,32.285h2.68v1.775h-2.68v3.639h3.372v1.774h-5.324V27.05h5.324v1.775h-3.372V32.285z"/>
					<path fill="#FFFFFF" d="M52.136,32.854l-0.71,6.62h-2.68L47.361,27.05h1.899l1.047,9.797l0.94-9.797h1.882l0.976,9.868
						l1.012-9.868h1.704l-1.384,12.424h-2.592L52.136,32.854z"/>
					<path fill="#FFFFFF" d="M60.419,26.908c1.899,0,2.876,1.136,2.876,3.124v0.39h-1.847v-0.515c0-0.888-0.354-1.225-0.976-1.225
						s-0.977,0.337-0.977,1.225c0,2.556,3.816,3.035,3.816,6.585c0,1.987-0.994,3.124-2.911,3.124s-2.911-1.137-2.911-3.124v-0.764
						h1.847v0.888c0,0.888,0.391,1.207,1.011,1.207c0.622,0,1.013-0.319,1.013-1.207c0-2.556-3.816-3.035-3.816-6.584
						C57.544,28.044,58.521,26.908,60.419,26.908z"/>
					<path fill="#FFFFFF" d="M64.427,27.05h1.953v10.649h3.212v1.774h-5.165V27.05z"/>
					<path fill="#FFFFFF" d="M72.393,32.285h2.682v1.775h-2.682v3.639h3.372v1.774h-5.323V27.05h5.323v1.775h-3.372V32.285z"/>
					<path fill="#FFFFFF" d="M76.401,27.05h6.033v1.775h-2.039v10.648h-1.954V28.825h-2.04V27.05z"/>
					<path fill="#FFFFFF" d="M82.717,27.05h6.034v1.775H86.71v10.648h-1.952V28.825h-2.041V27.05z"/>
					<path fill="#FFFFFF" d="M91.552,32.285h2.681v1.775h-2.681v3.639h3.372v1.774h-5.323V27.05h5.323v1.775h-3.372V32.285z"/>
					<path fill="#FFFFFF" d="M100.21,39.474c-0.105-0.319-0.177-0.515-0.177-1.526v-1.952c0-1.153-0.391-1.579-1.278-1.579h-0.674
						v5.058h-1.953V27.05h2.946c2.024,0,2.893,0.94,2.893,2.857v0.977c0,1.277-0.407,2.111-1.277,2.52
						c0.977,0.408,1.296,1.35,1.296,2.646v1.916c0,0.604,0.018,1.047,0.214,1.509H100.21z M98.081,28.825v3.815h0.763
						c0.728,0,1.172-0.319,1.172-1.313v-1.225c0-0.887-0.302-1.277-0.995-1.277H98.081z"/>
				</g>
				<g>
					<path fill="#FFFFFF" d="M43.845,64.995v3.133c0,3.773-1.887,5.929-5.524,5.929s-5.524-2.155-5.524-5.929V55.866
						c0-3.772,1.887-5.929,5.524-5.929s5.524,2.156,5.524,5.929v2.291h-3.504v-2.526c0-1.685-0.741-2.324-1.92-2.324
						s-1.92,0.64-1.92,2.324v12.732c0,1.685,0.741,2.291,1.92,2.291s1.92-0.606,1.92-2.291v-3.368H43.845z"/>
					<path fill="#FFFFFF" d="M56.171,56.035v3.065c0,3.772-1.819,5.827-5.524,5.827h-1.752v8.858h-3.705V50.207h5.457
						C54.352,50.207,56.171,52.262,56.171,56.035z M48.895,53.576v7.982h1.752c1.179,0,1.819-0.538,1.819-2.223v-3.537
						c0-1.684-0.641-2.223-1.819-2.223H48.895z"/>
					<path fill="#FFFFFF" d="M62.131,49.938c3.604,0,5.457,2.156,5.457,5.929v0.741h-3.504v-0.977c0-1.685-0.673-2.324-1.852-2.324
						c-1.18,0-1.854,0.64-1.854,2.324c0,4.851,7.243,5.76,7.243,12.497c0,3.773-1.887,5.929-5.524,5.929
						c-3.639,0-5.524-2.155-5.524-5.929V66.68h3.503v1.684c0,1.685,0.741,2.291,1.92,2.291s1.92-0.606,1.92-2.291
						c0-4.851-7.242-5.76-7.242-12.497C56.674,52.094,58.526,49.938,62.131,49.938z"/>
				</g>
				<rect x="34.155" y="84.836" fill="#FFFFFF" width="30.431" height="3.493"/>
				<rect x="70.674" y="84.836" fill="#FFFFFF" width="30.431" height="3.493"/>
				<rect x="70.674" y="95.897" fill="#FFFFFF" width="30.431" height="3.492"/>
				<rect x="34.155" y="95.897" fill="#FFFFFF" width="30.431" height="3.492"/>
			</g>
			<rect x="71.549" y="49.083" fill="#FFFFFF" width="28.72" height="27.168"/>
		</g>
	</g>
	<path fill="#E51843" d="M88.81,64.881c1.066-4.266-0.853-7.466-1.28-8.425c-0.426-0.96-0.959-4.265-0.426-4.799
		c0.533-0.533-0.32-1.28-0.32-1.28h-1.173h-0.04h-1.173c0,0-0.853,0.747-0.32,1.28c0.533,0.534,0,3.839-0.426,4.799
		c-0.427,0.959-2.347,4.159-1.28,8.425c1.067,4.266,0.32,4.371-0.321,7.145c-0.639,2.773,3.519,2.881,3.519,2.881h0.04
		c0,0,4.159-0.108,3.52-2.881C88.49,69.252,87.744,69.147,88.81,64.881z"/>
</g>
</svg>
